# xmcd
#
# Track frame offsets: 
#        150
#        11944
#        27989
#        43068
#        58262
#        75303
#        91335
#        108596
#        125655
#        139526
#        156494
#        172289
#        190102
#        204489
#        216387
#        229526
#        243660
#
# Disc length: 3469 seconds
#
# Revision: 0
# Processed by: cddbd v1.5.2PL0 Copyright (c) Steve Scherf et al.
# Submitted via: ExactAudioCopyFreeDBPlugin 1.0
#
DISCID=f80d8b11
DTITLE=Shy'm - Prendre L'Air (Deluxe Edition)
DYEAR=2011
DGENRE=R&B
TTITLE0=Je Sais
TTITLE1=Prendre L'Air
TTITLE2=Je Suis Moi
TTITLE3=Tourne
TTITLE4=Ne Pars Pas
TTITLE5=J'Entends Encore Les Mots
TTITLE6=En Apesanteur
TTITLE7=Mauvaises Nouvelles
TTITLE8=Deja Vu
TTITLE9=Elle Danse
TTITLE10=Loin Derriere
TTITLE11=Petit Tom
TTITLE12=Prendre L'Air (Acoustic)
TTITLE13=Je Sais (Acoustic)
TTITLE14=Femme De Couleur (Acoustic)
TTITLE15=Tourne (Acoustic)
TTITLE16=En Apesanteur (Reprise)
EXTD=
EXTT0=
EXTT1=
EXTT2=
EXTT3=
EXTT4=
EXTT5=
EXTT6=
EXTT7=
EXTT8=
EXTT9=
EXTT10=
EXTT11=
EXTT12=
EXTT13=
EXTT14=
EXTT15=
EXTT16=
PLAYORDER=
